<svg width="125" height="72" viewBox="0 0 125 72" fill="none" xmlns="http://www.w3.org/2000/svg">
<path d="M36.291 54.1875V53.3613C36.7363 53.3574 37.0391 53.3398 37.1992 53.3086C37.3633 53.2773 37.5176 53.1836 37.6621 53.0273C37.8066 52.8711 37.8789 52.6758 37.8789 52.4414C37.8789 52.1562 37.7832 51.9297 37.5918 51.7617C37.4043 51.5898 37.1602 51.5039 36.8594 51.5039C36.2656 51.5039 35.8496 51.8535 35.6113 52.5527L34.6094 52.3887C34.9219 51.2207 35.6758 50.6367 36.8711 50.6367C37.5352 50.6367 38.0547 50.8184 38.4297 51.1816C38.8086 51.5449 38.998 51.9785 38.998 52.4824C38.998 52.9902 38.752 53.3945 38.2598 53.6953C38.5723 53.8633 38.8066 54.0781 38.9629 54.3398C39.1191 54.5977 39.1973 54.9043 39.1973 55.2598C39.1973 55.8184 38.9941 56.2715 38.5879 56.6191C38.1816 56.9668 37.6133 57.1406 36.8828 57.1406C35.4648 57.1406 34.6426 56.5098 34.416 55.248L35.4062 55.0371C35.4961 55.4355 35.6777 55.7441 35.9512 55.9629C36.2285 56.1816 36.5449 56.291 36.9004 56.291C37.2559 56.291 37.5508 56.1914 37.7852 55.9922C38.0234 55.7891 38.1426 55.5312 38.1426 55.2188C38.1426 54.9766 38.0684 54.7656 37.9199 54.5859C37.7715 54.4062 37.6133 54.2949 37.4453 54.252C37.2773 54.2051 36.9727 54.1816 36.5312 54.1816C36.4961 54.1816 36.416 54.1836 36.291 54.1875ZM44.4824 56.2324C44.0918 56.5645 43.7148 56.7988 43.3516 56.9355C42.9922 57.0723 42.6055 57.1406 42.1914 57.1406C41.5078 57.1406 40.9824 56.9746 40.6152 56.6426C40.248 56.3066 40.0645 55.8789 40.0645 55.3594C40.0645 55.0547 40.1328 54.7773 40.2695 54.5273C40.4102 54.2734 40.5918 54.0703 40.8145 53.918C41.041 53.7656 41.2949 53.6504 41.5762 53.5723C41.7832 53.5176 42.0957 53.4648 42.5137 53.4141C43.3652 53.3125 43.9922 53.1914 44.3945 53.0508C44.3984 52.9062 44.4004 52.8145 44.4004 52.7754C44.4004 52.3457 44.3008 52.043 44.1016 51.8672C43.832 51.6289 43.4316 51.5098 42.9004 51.5098C42.4043 51.5098 42.0371 51.5977 41.7988 51.7734C41.5645 51.9453 41.3906 52.252 41.2773 52.6934L40.2461 52.5527C40.3398 52.1113 40.4941 51.7559 40.709 51.4863C40.9238 51.2129 41.2344 51.0039 41.6406 50.8594C42.0469 50.7109 42.5176 50.6367 43.0527 50.6367C43.584 50.6367 44.0156 50.6992 44.3477 50.8242C44.6797 50.9492 44.9238 51.1074 45.0801 51.2988C45.2363 51.4863 45.3457 51.7246 45.4082 52.0137C45.4434 52.1934 45.4609 52.5176 45.4609 52.9863V54.3926C45.4609 55.373 45.4824 55.9941 45.5254 56.2559C45.5723 56.5137 45.6621 56.7617 45.7949 57H44.6934C44.584 56.7812 44.5137 56.5254 44.4824 56.2324ZM44.3945 53.877C44.0117 54.0332 43.4375 54.166 42.6719 54.2754C42.2383 54.3379 41.9316 54.4082 41.752 54.4863C41.5723 54.5645 41.4336 54.6797 41.3359 54.832C41.2383 54.9805 41.1895 55.1465 41.1895 55.3301C41.1895 55.6113 41.2949 55.8457 41.5059 56.0332C41.7207 56.2207 42.0332 56.3145 42.4434 56.3145C42.8496 56.3145 43.2109 56.2266 43.5273 56.0508C43.8438 55.8711 44.0762 55.627 44.2246 55.3184C44.3379 55.0801 44.3945 54.7285 44.3945 54.2637V53.877ZM46.2637 50.7773H51.3203V51.6504H49.3164V57H48.2676V51.6504H46.2637V50.7773ZM52.3281 59.3848V50.7773H53.2891V51.5859C53.5156 51.2695 53.7715 51.0332 54.0566 50.877C54.3418 50.7168 54.6875 50.6367 55.0938 50.6367C55.625 50.6367 56.0938 50.7734 56.5 51.0469C56.9062 51.3203 57.2129 51.707 57.4199 52.207C57.627 52.7031 57.7305 53.248 57.7305 53.8418C57.7305 54.4785 57.6152 55.0527 57.3848 55.5645C57.1582 56.0723 56.8262 56.4629 56.3887 56.7363C55.9551 57.0059 55.498 57.1406 55.0176 57.1406C54.666 57.1406 54.3496 57.0664 54.0684 56.918C53.791 56.7695 53.5625 56.582 53.3828 56.3555V59.3848H52.3281ZM53.2832 53.9238C53.2832 54.7246 53.4453 55.3164 53.7695 55.6992C54.0938 56.082 54.4863 56.2734 54.9473 56.2734C55.416 56.2734 55.8164 56.0762 56.1484 55.6816C56.4844 55.2832 56.6523 54.668 56.6523 53.8359C56.6523 53.043 56.4883 52.4492 56.1602 52.0547C55.8359 51.6602 55.4473 51.4629 54.9941 51.4629C54.5449 51.4629 54.1465 51.6738 53.7988 52.0957C53.4551 52.5137 53.2832 53.123 53.2832 53.9238ZM63.0684 56.2324C62.6777 56.5645 62.3008 56.7988 61.9375 56.9355C61.5781 57.0723 61.1914 57.1406 60.7773 57.1406C60.0938 57.1406 59.5684 56.9746 59.2012 56.6426C58.834 56.3066 58.6504 55.8789 58.6504 55.3594C58.6504 55.0547 58.7188 54.7773 58.8555 54.5273C58.9961 54.2734 59.1777 54.0703 59.4004 53.918C59.627 53.7656 59.8809 53.6504 60.1621 53.5723C60.3691 53.5176 60.6816 53.4648 61.0996 53.4141C61.9512 53.3125 62.5781 53.1914 62.9805 53.0508C62.9844 52.9062 62.9863 52.8145 62.9863 52.7754C62.9863 52.3457 62.8867 52.043 62.6875 51.8672C62.418 51.6289 62.0176 51.5098 61.4863 51.5098C60.9902 51.5098 60.623 51.5977 60.3848 51.7734C60.1504 51.9453 59.9766 52.252 59.8633 52.6934L58.832 52.5527C58.9258 52.1113 59.0801 51.7559 59.2949 51.4863C59.5098 51.2129 59.8203 51.0039 60.2266 50.8594C60.6328 50.7109 61.1035 50.6367 61.6387 50.6367C62.1699 50.6367 62.6016 50.6992 62.9336 50.8242C63.2656 50.9492 63.5098 51.1074 63.666 51.2988C63.8223 51.4863 63.9316 51.7246 63.9941 52.0137C64.0293 52.1934 64.0469 52.5176 64.0469 52.9863V54.3926C64.0469 55.373 64.0684 55.9941 64.1113 56.2559C64.1582 56.5137 64.248 56.7617 64.3809 57H63.2793C63.1699 56.7812 63.0996 56.5254 63.0684 56.2324ZM62.9805 53.877C62.5977 54.0332 62.0234 54.166 61.2578 54.2754C60.8242 54.3379 60.5176 54.4082 60.3379 54.4863C60.1582 54.5645 60.0195 54.6797 59.9219 54.832C59.8242 54.9805 59.7754 55.1465 59.7754 55.3301C59.7754 55.6113 59.8809 55.8457 60.0918 56.0332C60.3066 56.2207 60.6191 56.3145 61.0293 56.3145C61.4355 56.3145 61.7969 56.2266 62.1133 56.0508C62.4297 55.8711 62.6621 55.627 62.8105 55.3184C62.9238 55.0801 62.9805 54.7285 62.9805 54.2637V53.877ZM65.0312 50.7773H66.0859V51.9551C66.0859 52.4629 66.1152 52.832 66.1738 53.0625C66.2363 53.2891 66.3828 53.4883 66.6133 53.6602C66.8438 53.8281 67.1328 53.9121 67.4805 53.9121C67.8789 53.9121 68.3945 53.8066 69.0273 53.5957V50.7773H70.082V57H69.0273V54.4922C68.3789 54.6953 67.7734 54.7969 67.2109 54.7969C66.7383 54.7969 66.3203 54.6777 65.957 54.4395C65.5977 54.1973 65.3535 53.9023 65.2246 53.5547C65.0957 53.207 65.0312 52.8242 65.0312 52.4062V50.7773ZM75.9355 54.9961L77.0254 55.1309C76.8535 55.7676 76.5352 56.2617 76.0703 56.6133C75.6055 56.9648 75.0117 57.1406 74.2891 57.1406C73.3789 57.1406 72.6562 56.8613 72.1211 56.3027C71.5898 55.7402 71.3242 54.9531 71.3242 53.9414C71.3242 52.8945 71.5938 52.082 72.1328 51.5039C72.6719 50.9258 73.3711 50.6367 74.2305 50.6367C75.0625 50.6367 75.7422 50.9199 76.2695 51.4863C76.7969 52.0527 77.0605 52.8496 77.0605 53.877C77.0605 53.9395 77.0586 54.0332 77.0547 54.1582H72.4141C72.4531 54.8418 72.6465 55.3652 72.9941 55.7285C73.3418 56.0918 73.7754 56.2734 74.2949 56.2734C74.6816 56.2734 75.0117 56.1719 75.2852 55.9688C75.5586 55.7656 75.7754 55.4414 75.9355 54.9961ZM72.4727 53.291H75.9473C75.9004 52.7676 75.7676 52.375 75.5488 52.1133C75.2129 51.707 74.7773 51.5039 74.2422 51.5039C73.7578 51.5039 73.3496 51.666 73.0176 51.9902C72.6895 52.3145 72.5078 52.748 72.4727 53.291ZM78.3613 50.7773H79.416V53.3672H82.3398V50.7773H83.3945V57H82.3398V54.2402H79.416V57H78.3613V50.7773ZM84.5957 53.8887C84.5957 52.7363 84.916 51.8828 85.5566 51.3281C86.0918 50.8672 86.7441 50.6367 87.5137 50.6367C88.3691 50.6367 89.0684 50.918 89.6113 51.4805C90.1543 52.0391 90.4258 52.8125 90.4258 53.8008C90.4258 54.6016 90.3047 55.2324 90.0625 55.6934C89.8242 56.1504 89.4746 56.5059 89.0137 56.7598C88.5566 57.0137 88.0566 57.1406 87.5137 57.1406C86.6426 57.1406 85.9375 56.8613 85.3984 56.3027C84.8633 55.7441 84.5957 54.9395 84.5957 53.8887ZM85.6797 53.8887C85.6797 54.6855 85.8535 55.2832 86.2012 55.6816C86.5488 56.0762 86.9863 56.2734 87.5137 56.2734C88.0371 56.2734 88.4727 56.0742 88.8203 55.6758C89.168 55.2773 89.3418 54.6699 89.3418 53.8535C89.3418 53.084 89.166 52.502 88.8145 52.1074C88.4668 51.709 88.0332 51.5098 87.5137 51.5098C86.9863 51.5098 86.5488 51.707 86.2012 52.1016C85.8535 52.4961 85.6797 53.0918 85.6797 53.8887ZM39.2969 62.7773H41.7285C42.3262 62.7773 42.7695 62.8281 43.0586 62.9297C43.3516 63.0273 43.6016 63.209 43.8086 63.4746C44.0195 63.7402 44.125 64.0586 44.125 64.4297C44.125 64.7266 44.0625 64.9863 43.9375 65.209C43.8164 65.4277 43.6328 65.6113 43.3867 65.7598C43.6797 65.8574 43.9219 66.041 44.1133 66.3105C44.3086 66.5762 44.4062 66.8926 44.4062 67.2598C44.3672 67.8496 44.1562 68.2871 43.7734 68.5723C43.3906 68.8574 42.834 69 42.1035 69H39.2969V62.7773ZM40.3516 65.3965H41.4766C41.9258 65.3965 42.2344 65.373 42.4023 65.3262C42.5703 65.2793 42.7207 65.1855 42.8535 65.0449C42.9863 64.9004 43.0527 64.7285 43.0527 64.5293C43.0527 64.2012 42.9355 63.9727 42.7012 63.8438C42.4707 63.7148 42.0742 63.6504 41.5117 63.6504H40.3516V65.3965ZM40.3516 68.1328H41.7402C42.3379 68.1328 42.748 68.0645 42.9707 67.9277C43.1934 67.7871 43.3105 67.5469 43.3223 67.207C43.3223 67.0078 43.2578 66.8242 43.1289 66.6562C43 66.4844 42.832 66.377 42.625 66.334C42.418 66.2871 42.0859 66.2637 41.6289 66.2637H40.3516V68.1328ZM45.666 71.3848V62.7773H46.627V63.5859C46.8535 63.2695 47.1094 63.0332 47.3945 62.877C47.6797 62.7168 48.0254 62.6367 48.4316 62.6367C48.9629 62.6367 49.4316 62.7734 49.8379 63.0469C50.2441 63.3203 50.5508 63.707 50.7578 64.207C50.9648 64.7031 51.0684 65.248 51.0684 65.8418C51.0684 66.4785 50.9531 67.0527 50.7227 67.5645C50.4961 68.0723 50.1641 68.4629 49.7266 68.7363C49.293 69.0059 48.8359 69.1406 48.3555 69.1406C48.0039 69.1406 47.6875 69.0664 47.4062 68.918C47.1289 68.7695 46.9004 68.582 46.7207 68.3555V71.3848H45.666ZM46.6211 65.9238C46.6211 66.7246 46.7832 67.3164 47.1074 67.6992C47.4316 68.082 47.8242 68.2734 48.2852 68.2734C48.7539 68.2734 49.1543 68.0762 49.4863 67.6816C49.8223 67.2832 49.9902 66.668 49.9902 65.8359C49.9902 65.043 49.8262 64.4492 49.498 64.0547C49.1738 63.6602 48.7852 63.4629 48.332 63.4629C47.8828 63.4629 47.4844 63.6738 47.1367 64.0957C46.793 64.5137 46.6211 65.123 46.6211 65.9238ZM56.6055 66.9961L57.6953 67.1309C57.5234 67.7676 57.2051 68.2617 56.7402 68.6133C56.2754 68.9648 55.6816 69.1406 54.959 69.1406C54.0488 69.1406 53.3262 68.8613 52.791 68.3027C52.2598 67.7402 51.9941 66.9531 51.9941 65.9414C51.9941 64.8945 52.2637 64.082 52.8027 63.5039C53.3418 62.9258 54.041 62.6367 54.9004 62.6367C55.7324 62.6367 56.4121 62.9199 56.9395 63.4863C57.4668 64.0527 57.7305 64.8496 57.7305 65.877C57.7305 65.9395 57.7285 66.0332 57.7246 66.1582H53.084C53.123 66.8418 53.3164 67.3652 53.6641 67.7285C54.0117 68.0918 54.4453 68.2734 54.9648 68.2734C55.3516 68.2734 55.6816 68.1719 55.9551 67.9688C56.2285 67.7656 56.4453 67.4414 56.6055 66.9961ZM53.1426 65.291H56.6172C56.5703 64.7676 56.4375 64.375 56.2188 64.1133C55.8828 63.707 55.4473 63.5039 54.9121 63.5039C54.4277 63.5039 54.0195 63.666 53.6875 63.9902C53.3594 64.3145 53.1777 64.748 53.1426 65.291ZM59.0547 62.7773H60.6953L62.3301 67.7578L64.1465 62.7773H65.6641V69H64.6094V63.9902L62.7695 69H61.8262L60.0859 63.75V69H59.0547V62.7773ZM71.5352 66.9961L72.625 67.1309C72.4531 67.7676 72.1348 68.2617 71.6699 68.6133C71.2051 68.9648 70.6113 69.1406 69.8887 69.1406C68.9785 69.1406 68.2559 68.8613 67.7207 68.3027C67.1895 67.7402 66.9238 66.9531 66.9238 65.9414C66.9238 64.8945 67.1934 64.082 67.7324 63.5039C68.2715 62.9258 68.9707 62.6367 69.8301 62.6367C70.6621 62.6367 71.3418 62.9199 71.8691 63.4863C72.3965 64.0527 72.6602 64.8496 72.6602 65.877C72.6602 65.9395 72.6582 66.0332 72.6543 66.1582H68.0137C68.0527 66.8418 68.2461 67.3652 68.5938 67.7285C68.9414 68.0918 69.375 68.2734 69.8945 68.2734C70.2812 68.2734 70.6113 68.1719 70.8848 67.9688C71.1582 67.7656 71.375 67.4414 71.5352 66.9961ZM68.0723 65.291H71.5469C71.5 64.7676 71.3672 64.375 71.1484 64.1133C70.8125 63.707 70.377 63.5039 69.8418 63.5039C69.3574 63.5039 68.9492 63.666 68.6172 63.9902C68.2891 64.3145 68.1074 64.748 68.0723 65.291ZM73.9609 62.7773H75.0156V65.3672H77.9395V62.7773H78.9941V69H77.9395V66.2402H75.0156V69H73.9609V62.7773ZM80.5879 62.7773H81.6426V67.5234L84.5664 62.7773H85.7031V69H84.6484V64.2832L81.7246 69H80.5879V62.7773Z" fill="#444444"/>
<path fill-rule="evenodd" clip-rule="evenodd" d="M4 1H122C123.105 1 124 1.89543 124 3V53C124 54.1046 123.105 55 122 55H106V56H122C123.657 56 125 54.6569 125 53V3C125 1.34315 123.657 0 122 0H4C2.34315 0 1 1.34314 1 3V53C1 54.6569 2.34314 56 4 56H19V55H4C2.89543 55 2 54.1046 2 53V3C2 1.89543 2.89543 1 4 1Z" fill="#CDCDCD"/>
<path d="M28.1453 37.6835C27.0253 37.6835 26.1133 37.4035 25.4093 36.8435C24.7053 36.2675 24.1853 35.4995 23.8493 34.5395C23.5293 33.5635 23.3693 32.4835 23.3693 31.2995V24.7475C23.3693 23.4835 23.5133 22.3315 23.8013 21.2915C24.0893 20.2515 24.5773 19.4195 25.2653 18.7955C25.9693 18.1715 26.9293 17.8595 28.1453 17.8595C29.1533 17.8595 30.0013 18.0435 30.6893 18.4115C31.3933 18.7795 31.9293 19.3155 32.2973 20.0195C32.6813 20.7235 32.8813 21.5795 32.8973 22.5875C32.8973 22.6195 32.8973 22.6675 32.8973 22.7315C32.9133 22.7795 32.9213 22.8275 32.9213 22.8755H30.3293C30.3293 21.9315 30.1773 21.2115 29.8733 20.7155C29.5693 20.2195 28.9933 19.9715 28.1453 19.9715C27.6813 19.9715 27.2813 20.1235 26.9453 20.4275C26.6093 20.7155 26.3533 21.1635 26.1773 21.7715C26.0173 22.3795 25.9373 23.1635 25.9373 24.1235V27.0755C26.1933 26.6755 26.5533 26.3555 27.0173 26.1155C27.4973 25.8595 28.0813 25.7315 28.7693 25.7315C29.8413 25.7315 30.6813 25.9635 31.2893 26.4275C31.8973 26.8915 32.3293 27.5475 32.5853 28.3955C32.8413 29.2275 32.9693 30.2115 32.9693 31.3475C32.9693 32.5155 32.8093 33.5795 32.4893 34.5395C32.1693 35.4995 31.6573 36.2675 30.9533 36.8435C30.2493 37.4035 29.3133 37.6835 28.1453 37.6835ZM28.1453 35.5475C28.7213 35.5475 29.1693 35.3875 29.4893 35.0675C29.8093 34.7315 30.0333 34.2915 30.1613 33.7475C30.3053 33.2035 30.3773 32.6115 30.3773 31.9715C30.3773 31.2035 30.3373 30.4915 30.2573 29.8355C30.1933 29.1795 30.0093 28.6595 29.7053 28.2755C29.4013 27.8755 28.8813 27.6755 28.1453 27.6755C27.7933 27.6755 27.4733 27.7395 27.1853 27.8675C26.8973 27.9955 26.6493 28.1635 26.4413 28.3715C26.2333 28.5635 26.0653 28.7715 25.9373 28.9955V31.8995C25.9373 32.5555 26.0013 33.1635 26.1293 33.7235C26.2733 34.2835 26.5053 34.7315 26.8253 35.0675C27.1453 35.3875 27.5853 35.5475 28.1453 35.5475ZM40.2636 37.6835C39.1596 37.6835 38.2476 37.4355 37.5276 36.9395C36.8236 36.4435 36.2956 35.7635 35.9436 34.8995C35.6076 34.0355 35.4396 33.0515 35.4396 31.9475V23.5715C35.4396 22.4355 35.6076 21.4435 35.9436 20.5955C36.2796 19.7315 36.7996 19.0595 37.5036 18.5795C38.2236 18.0995 39.1436 17.8595 40.2636 17.8595C41.3836 17.8595 42.2956 18.0995 42.9996 18.5795C43.7036 19.0595 44.2236 19.7315 44.5596 20.5955C44.8956 21.4435 45.0636 22.4355 45.0636 23.5715V31.9475C45.0636 33.0675 44.8876 34.0595 44.5356 34.9235C44.1996 35.7875 43.6796 36.4675 42.9756 36.9635C42.2716 37.4435 41.3676 37.6835 40.2636 37.6835ZM40.2636 35.5715C40.8716 35.5715 41.3276 35.3955 41.6316 35.0435C41.9516 34.6915 42.1676 34.2435 42.2796 33.6995C42.4076 33.1395 42.4716 32.5635 42.4716 31.9715V23.5475C42.4716 22.9235 42.4156 22.3395 42.3036 21.7955C42.1916 21.2355 41.9756 20.7875 41.6556 20.4515C41.3516 20.1155 40.8876 19.9475 40.2636 19.9475C39.6396 19.9475 39.1676 20.1155 38.8476 20.4515C38.5276 20.7875 38.3116 21.2355 38.1996 21.7955C38.0876 22.3395 38.0316 22.9235 38.0316 23.5475V31.9715C38.0316 32.5635 38.0876 33.1395 38.1996 33.6995C38.3276 34.2435 38.5516 34.6915 38.8716 35.0435C39.2076 35.3955 39.6716 35.5715 40.2636 35.5715ZM52.1944 40.9955V35.5235H53.0824C53.3544 35.2995 53.6184 35.0275 53.8744 34.7075C54.1464 34.3875 54.3944 33.9715 54.6184 33.4595C54.8584 32.9315 55.0744 32.2595 55.2664 31.4435C55.4584 30.6115 55.6264 29.5715 55.7704 28.3235C55.9304 27.0755 56.0504 25.5635 56.1304 23.7875L56.4424 18.0275H64.5784V35.5235H66.4504V40.9955H64.3624L64.1464 37.4675H54.4984L54.2824 40.9955H52.1944ZM55.6024 35.5235H61.8904V20.0435H58.7464L58.5544 24.4355C58.4904 26.1635 58.3864 27.6195 58.2424 28.8035C58.1144 29.9715 57.9544 30.9395 57.7624 31.7075C57.5864 32.4595 57.3784 33.0755 57.1384 33.5555C56.9144 34.0195 56.6664 34.3955 56.3944 34.6835C56.1384 34.9715 55.8744 35.2515 55.6024 35.5235ZM68.4893 37.4675V18.0275H71.2013V26.4275H76.1933V18.0275H78.9053V37.4675H76.1933V28.3715H71.2013V37.4675H68.4893ZM81.9424 37.4675V18.0275H89.4784V20.0435H84.6544V26.4755H88.5664V28.3955H84.6544V35.5235H89.5264V37.4675H81.9424ZM91.7159 37.4675V18.0275H94.1159V31.4915L99.8039 18.0275H101.748V37.4675H99.3719V23.7875L93.7319 37.4675H91.7159ZM96.9719 16.5155C95.8199 16.5155 95.0039 16.2035 94.5239 15.5795C94.0599 14.9555 93.8279 14.1795 93.8279 13.2515H95.3159C95.3319 13.8275 95.4599 14.2755 95.6999 14.5955C95.9559 14.8995 96.3799 15.0515 96.9719 15.0515C97.5799 15.0515 98.0039 14.8915 98.2439 14.5715C98.4999 14.2515 98.6279 13.8115 98.6279 13.2515H100.14C100.14 14.1795 99.8999 14.9555 99.4199 15.5795C98.9559 16.2035 98.1399 16.5155 96.9719 16.5155Z" fill="black"/>
</svg>
