<svg width="162" height="77" viewBox="0 0 162 77" fill="none" xmlns="http://www.w3.org/2000/svg">
<path d="M37.748 72.3408L38.958 72.498C38.8258 73.332 38.4863 73.986 37.9395 74.46C37.3971 74.9294 36.7295 75.1641 35.9365 75.1641C34.943 75.1641 34.1432 74.8405 33.5371 74.1934C32.9355 73.5417 32.6348 72.6097 32.6348 71.3975C32.6348 70.6136 32.7646 69.9277 33.0244 69.3398C33.2842 68.752 33.6784 68.3122 34.207 68.0205C34.7402 67.7243 35.319 67.5762 35.9434 67.5762C36.7318 67.5762 37.3766 67.7767 37.8779 68.1777C38.3792 68.5742 38.7005 69.1393 38.8418 69.873L37.6455 70.0576C37.5316 69.57 37.3288 69.2031 37.0371 68.957C36.75 68.7109 36.4014 68.5879 35.9912 68.5879C35.3714 68.5879 34.8678 68.8112 34.4805 69.2578C34.0931 69.6999 33.8994 70.4017 33.8994 71.3633C33.8994 72.3385 34.0863 73.0472 34.46 73.4893C34.8337 73.9313 35.3213 74.1523 35.9229 74.1523C36.4059 74.1523 36.8092 74.0042 37.1328 73.708C37.4564 73.4118 37.6615 72.9561 37.748 72.3408ZM40.0176 67.7402H41.248V70.7617H44.6592V67.7402H45.8896V75H44.6592V71.7803H41.248V75H40.0176V67.7402ZM47.749 67.7402H48.9795V73.2773L52.3906 67.7402H53.7168V75H52.4863V69.4971L49.0752 75H47.749V67.7402ZM59.958 67.7402V70.8779C60.3499 70.8779 60.6257 70.8027 60.7852 70.6523C60.9447 70.502 61.1771 70.0645 61.4824 69.3398C61.7695 68.6517 62.027 68.2119 62.2549 68.0205C62.4782 67.8337 62.8337 67.7402 63.3213 67.7402H63.7725V68.7588L63.4375 68.752C63.1094 68.752 62.8997 68.7998 62.8086 68.8955C62.7129 68.9958 62.5671 69.2943 62.3711 69.791C62.1888 70.265 62.0202 70.5931 61.8652 70.7754C61.7103 70.9577 61.4688 71.124 61.1406 71.2744C61.6738 71.4157 62.1934 71.9079 62.6992 72.751L64.0527 75H62.6992L61.3799 72.751C61.111 72.2952 60.8763 71.9967 60.6758 71.8555C60.4753 71.7142 60.236 71.6436 59.958 71.6436V75H58.7002V71.6436C58.4268 71.6436 58.1898 71.7142 57.9893 71.8555C57.7887 71.9922 57.554 72.2907 57.2852 72.751L55.9658 75H54.6123L55.959 72.751C56.4694 71.9079 56.9912 71.4157 57.5244 71.2744C57.1598 71.1058 56.9046 70.9235 56.7588 70.7275C56.613 70.527 56.3942 70.0531 56.1025 69.3057C56.0023 69.055 55.8952 68.9001 55.7812 68.8408C55.6628 68.7816 55.4873 68.752 55.2549 68.752C55.1956 68.752 55.0749 68.7542 54.8926 68.7588V67.7402H55.0635C55.5374 67.7402 55.8701 67.7699 56.0615 67.8291C56.2575 67.8838 56.4307 68.0046 56.5811 68.1914C56.736 68.3737 56.9365 68.7565 57.1826 69.3398C57.4834 70.0553 57.7113 70.4906 57.8662 70.6455C58.0257 70.8005 58.3037 70.8779 58.7002 70.8779V67.7402H59.958ZM69.9043 72.6621L71.1758 72.8193C70.9753 73.5622 70.6038 74.1387 70.0615 74.5488C69.5192 74.959 68.8265 75.1641 67.9834 75.1641C66.9215 75.1641 66.0785 74.8382 65.4541 74.1865C64.8343 73.5303 64.5244 72.612 64.5244 71.4316C64.5244 70.2103 64.8389 69.2624 65.4678 68.5879C66.0967 67.9134 66.9124 67.5762 67.915 67.5762C68.8857 67.5762 69.6787 67.9066 70.2939 68.5674C70.9092 69.2282 71.2168 70.1579 71.2168 71.3564C71.2168 71.4294 71.2145 71.5387 71.21 71.6846H65.7959C65.8415 72.4821 66.0671 73.0928 66.4727 73.5166C66.8783 73.9404 67.3841 74.1523 67.9902 74.1523C68.4414 74.1523 68.8265 74.0339 69.1455 73.7969C69.4645 73.5599 69.7174 73.1816 69.9043 72.6621ZM65.8643 70.6729H69.918C69.8633 70.0622 69.7083 69.6042 69.4531 69.2988C69.0612 68.8249 68.5531 68.5879 67.9287 68.5879C67.3636 68.5879 66.8874 68.777 66.5 69.1553C66.1172 69.5335 65.9053 70.0394 65.8643 70.6729ZM72.7344 67.7402H73.9648V70.7617H77.376V67.7402H78.6064V75H77.376V71.7803H73.9648V75H72.7344V67.7402ZM80.4658 67.7402H81.6963V73.2773L85.1074 67.7402H86.4336V75H85.2031V69.4971L81.792 75H80.4658V67.7402ZM93.2559 72.6621L94.5273 72.8193C94.3268 73.5622 93.9554 74.1387 93.4131 74.5488C92.8708 74.959 92.1781 75.1641 91.335 75.1641C90.2731 75.1641 89.43 74.8382 88.8057 74.1865C88.1859 73.5303 87.876 72.612 87.876 71.4316C87.876 70.2103 88.1904 69.2624 88.8193 68.5879C89.4482 67.9134 90.264 67.5762 91.2666 67.5762C92.2373 67.5762 93.0303 67.9066 93.6455 68.5674C94.2607 69.2282 94.5684 70.1579 94.5684 71.3564C94.5684 71.4294 94.5661 71.5387 94.5615 71.6846H89.1475C89.193 72.4821 89.4186 73.0928 89.8242 73.5166C90.2298 73.9404 90.7357 74.1523 91.3418 74.1523C91.793 74.1523 92.1781 74.0339 92.4971 73.7969C92.8161 73.5599 93.069 73.1816 93.2559 72.6621ZM89.2158 70.6729H93.2695C93.2148 70.0622 93.0599 69.6042 92.8047 69.2988C92.4128 68.8249 91.9046 68.5879 91.2803 68.5879C90.7152 68.5879 90.2389 68.777 89.8516 69.1553C89.4688 69.5335 89.2568 70.0394 89.2158 70.6729ZM99.9824 67.7402H102.819C103.517 67.7402 104.034 67.7995 104.371 67.918C104.713 68.0319 105.005 68.2438 105.246 68.5537C105.492 68.8636 105.615 69.235 105.615 69.668C105.615 70.0143 105.542 70.3174 105.396 70.5771C105.255 70.8324 105.041 71.0465 104.754 71.2197C105.096 71.3337 105.378 71.5479 105.602 71.8623C105.829 72.1722 105.943 72.5413 105.943 72.9697C105.898 73.6579 105.652 74.1683 105.205 74.501C104.758 74.8337 104.109 75 103.257 75H99.9824V67.7402ZM101.213 70.7959H102.525C103.049 70.7959 103.41 70.7686 103.605 70.7139C103.801 70.6592 103.977 70.5498 104.132 70.3857C104.287 70.2171 104.364 70.0166 104.364 69.7842C104.364 69.4014 104.228 69.1348 103.954 68.9844C103.685 68.834 103.223 68.7588 102.566 68.7588H101.213V70.7959ZM101.213 73.9883H102.833C103.53 73.9883 104.009 73.9085 104.269 73.749C104.528 73.585 104.665 73.3047 104.679 72.9082C104.679 72.6758 104.604 72.4616 104.453 72.2656C104.303 72.0651 104.107 71.9398 103.865 71.8896C103.624 71.835 103.236 71.8076 102.703 71.8076H101.213V73.9883ZM112.219 72.6621L113.49 72.8193C113.29 73.5622 112.918 74.1387 112.376 74.5488C111.834 74.959 111.141 75.1641 110.298 75.1641C109.236 75.1641 108.393 74.8382 107.769 74.1865C107.149 73.5303 106.839 72.612 106.839 71.4316C106.839 70.2103 107.153 69.2624 107.782 68.5879C108.411 67.9134 109.227 67.5762 110.229 67.5762C111.2 67.5762 111.993 67.9066 112.608 68.5674C113.224 69.2282 113.531 70.1579 113.531 71.3564C113.531 71.4294 113.529 71.5387 113.524 71.6846H108.11C108.156 72.4821 108.382 73.0928 108.787 73.5166C109.193 73.9404 109.699 74.1523 110.305 74.1523C110.756 74.1523 111.141 74.0339 111.46 73.7969C111.779 73.5599 112.032 73.1816 112.219 72.6621ZM108.179 70.6729H112.232C112.178 70.0622 112.023 69.6042 111.768 69.2988C111.376 68.8249 110.868 68.5879 110.243 68.5879C109.678 68.5879 109.202 68.777 108.814 69.1553C108.432 69.5335 108.22 70.0394 108.179 70.6729ZM119.779 72.3408L120.989 72.498C120.857 73.332 120.518 73.986 119.971 74.46C119.428 74.9294 118.761 75.1641 117.968 75.1641C116.974 75.1641 116.174 74.8405 115.568 74.1934C114.967 73.5417 114.666 72.6097 114.666 71.3975C114.666 70.6136 114.796 69.9277 115.056 69.3398C115.315 68.752 115.71 68.3122 116.238 68.0205C116.771 67.7243 117.35 67.5762 117.975 67.5762C118.763 67.5762 119.408 67.7767 119.909 68.1777C120.41 68.5742 120.732 69.1393 120.873 69.873L119.677 70.0576C119.563 69.57 119.36 69.2031 119.068 68.957C118.781 68.7109 118.433 68.5879 118.022 68.5879C117.403 68.5879 116.899 68.8112 116.512 69.2578C116.124 69.6999 115.931 70.4017 115.931 71.3633C115.931 72.3385 116.118 73.0472 116.491 73.4893C116.865 73.9313 117.353 74.1523 117.954 74.1523C118.437 74.1523 118.84 74.0042 119.164 73.708C119.488 73.4118 119.693 72.9561 119.779 72.3408ZM126.779 74.1045C126.324 74.4919 125.884 74.7653 125.46 74.9248C125.041 75.0843 124.59 75.1641 124.106 75.1641C123.309 75.1641 122.696 74.9704 122.268 74.583C121.839 74.1911 121.625 73.6921 121.625 73.0859C121.625 72.7305 121.705 72.4069 121.864 72.1152C122.028 71.819 122.24 71.582 122.5 71.4043C122.764 71.2266 123.061 71.0921 123.389 71.001C123.63 70.9372 123.995 70.8757 124.482 70.8164C125.476 70.6979 126.207 70.5566 126.677 70.3926C126.681 70.224 126.684 70.1169 126.684 70.0713C126.684 69.57 126.567 69.2168 126.335 69.0117C126.021 68.7337 125.553 68.5947 124.934 68.5947C124.355 68.5947 123.926 68.6973 123.648 68.9023C123.375 69.1029 123.172 69.4606 123.04 69.9756L121.837 69.8115C121.946 69.2965 122.126 68.8818 122.377 68.5674C122.628 68.2484 122.99 68.0046 123.464 67.8359C123.938 67.6628 124.487 67.5762 125.111 67.5762C125.731 67.5762 126.235 67.6491 126.622 67.7949C127.009 67.9408 127.294 68.1253 127.477 68.3486C127.659 68.5674 127.786 68.8454 127.859 69.1826C127.9 69.3923 127.921 69.7705 127.921 70.3174V71.958C127.921 73.1019 127.946 73.8265 127.996 74.1318C128.051 74.4326 128.156 74.722 128.311 75H127.025C126.898 74.7448 126.816 74.4463 126.779 74.1045ZM126.677 71.3564C126.23 71.5387 125.56 71.6937 124.667 71.8213C124.161 71.8942 123.803 71.9762 123.594 72.0674C123.384 72.1585 123.222 72.293 123.108 72.4707C122.994 72.6439 122.938 72.8376 122.938 73.0518C122.938 73.3799 123.061 73.6533 123.307 73.8721C123.557 74.0908 123.922 74.2002 124.4 74.2002C124.874 74.2002 125.296 74.0977 125.665 73.8926C126.034 73.6829 126.305 73.3981 126.479 73.0381C126.611 72.7601 126.677 72.3499 126.677 71.8076V71.3564Z" fill="#444444"/>
<path fill-rule="evenodd" clip-rule="evenodd" d="M3 1H159C160.105 1 161 1.89543 161 3V69C161 70.1046 160.105 71 159 71H138V72H159C160.657 72 162 70.6569 162 69V3C162 1.34315 160.657 0 159 0H3C1.34315 0 0 1.34315 0 3V69C0 70.6569 1.34314 72 3 72H24V71H3C1.89543 71 1 70.1046 1 69V3C1 1.89543 1.89543 1 3 1Z" fill="#CDCDCD"/>
<path d="M64.3252 47.24C69.0952 47.24 70.3552 43.46 70.3552 38.48C70.3552 34.31 69.1252 31.28 65.1952 31.28C63.6652 31.28 62.4952 31.79 61.6852 32.63L61.8952 25.91H69.4552V22.7H58.9852V35.72H61.7152C62.1652 34.67 63.0952 33.71 64.4152 33.71C66.8452 33.71 67.1452 35.63 67.1452 38.9C67.1452 42.2 66.9952 44.69 64.3852 44.69C61.9852 44.69 61.6552 42.38 61.6552 40.19H58.4452C58.4452 44.6 59.9452 47.24 64.3252 47.24ZM80.0482 47H83.4382V35.15H84.7282L89.6482 47H93.0382L87.6382 34.25L92.4382 22.7H89.0482L84.6982 33.5H83.4382V22.7H80.0482V47ZM95.2826 47H98.6726V25.22H104.523V22.7H95.2826V47Z" fill="black"/>
</svg>
