<svg width="162" height="78" viewBox="0 0 162 78" fill="none" xmlns="http://www.w3.org/2000/svg">
<path d="M19.9746 71.7188V70.7549C20.4941 70.7503 20.8473 70.7298 21.0342 70.6934C21.2256 70.6569 21.4056 70.5475 21.5742 70.3652C21.7428 70.1829 21.8271 69.9551 21.8271 69.6816C21.8271 69.349 21.7155 69.0846 21.4922 68.8887C21.2734 68.6882 20.9886 68.5879 20.6377 68.5879C19.945 68.5879 19.4596 68.9958 19.1816 69.8115L18.0127 69.6201C18.3773 68.2575 19.2568 67.5762 20.6514 67.5762C21.4261 67.5762 22.0322 67.7881 22.4697 68.2119C22.9118 68.6357 23.1328 69.1416 23.1328 69.7295C23.1328 70.3219 22.8457 70.7936 22.2715 71.1445C22.6361 71.3405 22.9095 71.5911 23.0918 71.8965C23.2741 72.1973 23.3652 72.555 23.3652 72.9697C23.3652 73.6214 23.1283 74.1501 22.6543 74.5557C22.1803 74.9613 21.5173 75.1641 20.665 75.1641C19.0107 75.1641 18.0514 74.4281 17.7871 72.9561L18.9424 72.71C19.0472 73.1748 19.2591 73.5348 19.5781 73.79C19.9017 74.0452 20.2708 74.1729 20.6855 74.1729C21.1003 74.1729 21.4443 74.0566 21.7178 73.8242C21.9958 73.5872 22.1348 73.2865 22.1348 72.9219C22.1348 72.6393 22.0482 72.3932 21.875 72.1836C21.7018 71.974 21.5173 71.8441 21.3213 71.7939C21.1253 71.7393 20.7699 71.7119 20.2549 71.7119C20.2139 71.7119 20.1204 71.7142 19.9746 71.7188ZM29.5312 74.1045C29.0755 74.4919 28.6357 74.7653 28.2119 74.9248C27.7926 75.0843 27.3415 75.1641 26.8584 75.1641C26.0609 75.1641 25.4479 74.9704 25.0195 74.583C24.5911 74.1911 24.377 73.6921 24.377 73.0859C24.377 72.7305 24.4567 72.4069 24.6162 72.1152C24.7803 71.819 24.9922 71.582 25.252 71.4043C25.5163 71.2266 25.8125 71.0921 26.1406 71.001C26.3822 70.9372 26.7467 70.8757 27.2344 70.8164C28.2279 70.6979 28.9593 70.5566 29.4287 70.3926C29.4333 70.224 29.4355 70.1169 29.4355 70.0713C29.4355 69.57 29.3193 69.2168 29.0869 69.0117C28.7725 68.7337 28.3053 68.5947 27.6855 68.5947C27.1068 68.5947 26.6784 68.6973 26.4004 68.9023C26.127 69.1029 25.9242 69.4606 25.792 69.9756L24.5889 69.8115C24.6982 69.2965 24.8783 68.8818 25.1289 68.5674C25.3796 68.2484 25.7419 68.0046 26.2158 67.8359C26.6898 67.6628 27.2389 67.5762 27.8633 67.5762C28.4831 67.5762 28.9867 67.6491 29.374 67.7949C29.7614 67.9408 30.0462 68.1253 30.2285 68.3486C30.4108 68.5674 30.5384 68.8454 30.6113 69.1826C30.6523 69.3923 30.6729 69.7705 30.6729 70.3174V71.958C30.6729 73.1019 30.6979 73.8265 30.748 74.1318C30.8027 74.4326 30.9076 74.722 31.0625 75H29.7773C29.6497 74.7448 29.5677 74.4463 29.5312 74.1045ZM29.4287 71.3564C28.9821 71.5387 28.3122 71.6937 27.4189 71.8213C26.9131 71.8942 26.5553 71.9762 26.3457 72.0674C26.1361 72.1585 25.9743 72.293 25.8604 72.4707C25.7464 72.6439 25.6895 72.8376 25.6895 73.0518C25.6895 73.3799 25.8125 73.6533 26.0586 73.8721C26.3092 74.0908 26.6738 74.2002 27.1523 74.2002C27.6263 74.2002 28.0479 74.0977 28.417 73.8926C28.7861 73.6829 29.0573 73.3981 29.2305 73.0381C29.3626 72.7601 29.4287 72.3499 29.4287 71.8076V71.3564ZM31.6094 67.7402H37.5088V68.7588H35.1709V75H33.9473V68.7588H31.6094V67.7402ZM38.6846 77.7822V67.7402H39.8057V68.6836C40.07 68.3145 40.3685 68.0387 40.7012 67.8564C41.0339 67.6696 41.4372 67.5762 41.9111 67.5762C42.5309 67.5762 43.0778 67.7357 43.5518 68.0547C44.0257 68.3737 44.3835 68.8249 44.625 69.4082C44.8665 69.987 44.9873 70.6227 44.9873 71.3154C44.9873 72.0583 44.8529 72.7282 44.584 73.3252C44.3197 73.9176 43.9323 74.3734 43.4219 74.6924C42.916 75.0068 42.3828 75.1641 41.8223 75.1641C41.4121 75.1641 41.043 75.0775 40.7148 74.9043C40.3913 74.7311 40.1247 74.5124 39.915 74.248V77.7822H38.6846ZM39.7988 71.4111C39.7988 72.3454 39.988 73.0358 40.3662 73.4824C40.7445 73.929 41.2025 74.1523 41.7402 74.1523C42.2871 74.1523 42.7542 73.9222 43.1416 73.4619C43.5335 72.9971 43.7295 72.2793 43.7295 71.3086C43.7295 70.3835 43.5381 69.6908 43.1553 69.2305C42.777 68.7702 42.3236 68.54 41.7949 68.54C41.2708 68.54 40.806 68.7861 40.4004 69.2783C39.9993 69.766 39.7988 70.4769 39.7988 71.4111ZM51.2148 74.1045C50.7591 74.4919 50.3193 74.7653 49.8955 74.9248C49.4762 75.0843 49.0251 75.1641 48.542 75.1641C47.7445 75.1641 47.1315 74.9704 46.7031 74.583C46.2747 74.1911 46.0605 73.6921 46.0605 73.0859C46.0605 72.7305 46.1403 72.4069 46.2998 72.1152C46.4639 71.819 46.6758 71.582 46.9355 71.4043C47.1999 71.2266 47.4961 71.0921 47.8242 71.001C48.0658 70.9372 48.4303 70.8757 48.918 70.8164C49.9115 70.6979 50.6429 70.5566 51.1123 70.3926C51.1169 70.224 51.1191 70.1169 51.1191 70.0713C51.1191 69.57 51.0029 69.2168 50.7705 69.0117C50.4561 68.7337 49.9889 68.5947 49.3691 68.5947C48.7904 68.5947 48.362 68.6973 48.084 68.9023C47.8105 69.1029 47.6077 69.4606 47.4756 69.9756L46.2725 69.8115C46.3818 69.2965 46.5618 68.8818 46.8125 68.5674C47.0632 68.2484 47.4255 68.0046 47.8994 67.8359C48.3734 67.6628 48.9225 67.5762 49.5469 67.5762C50.1667 67.5762 50.6702 67.6491 51.0576 67.7949C51.445 67.9408 51.7298 68.1253 51.9121 68.3486C52.0944 68.5674 52.222 68.8454 52.2949 69.1826C52.3359 69.3923 52.3564 69.7705 52.3564 70.3174V71.958C52.3564 73.1019 52.3815 73.8265 52.4316 74.1318C52.4863 74.4326 52.5911 74.722 52.7461 75H51.4609C51.3333 74.7448 51.2513 74.4463 51.2148 74.1045ZM51.1123 71.3564C50.6657 71.5387 49.9958 71.6937 49.1025 71.8213C48.5967 71.8942 48.2389 71.9762 48.0293 72.0674C47.8197 72.1585 47.6579 72.293 47.5439 72.4707C47.43 72.6439 47.373 72.8376 47.373 73.0518C47.373 73.3799 47.4961 73.6533 47.7422 73.8721C47.9928 74.0908 48.3574 74.2002 48.8359 74.2002C49.3099 74.2002 49.7314 74.0977 50.1006 73.8926C50.4697 73.6829 50.7409 73.3981 50.9141 73.0381C51.0462 72.7601 51.1123 72.3499 51.1123 71.8076V71.3564ZM53.5049 67.7402H54.7354V69.1143C54.7354 69.7067 54.7695 70.1374 54.8379 70.4062C54.9108 70.6706 55.0817 70.903 55.3506 71.1035C55.6195 71.2995 55.9567 71.3975 56.3623 71.3975C56.8271 71.3975 57.4287 71.2744 58.167 71.0283V67.7402H59.3975V75H58.167V72.0742C57.4105 72.3112 56.7041 72.4297 56.0479 72.4297C55.4964 72.4297 55.0088 72.2907 54.585 72.0127C54.1657 71.7301 53.8809 71.3861 53.7305 70.9805C53.5801 70.5749 53.5049 70.1283 53.5049 69.6406V67.7402ZM66.2266 72.6621L67.498 72.8193C67.2975 73.5622 66.9261 74.1387 66.3838 74.5488C65.8415 74.959 65.1488 75.1641 64.3057 75.1641C63.2438 75.1641 62.4007 74.8382 61.7764 74.1865C61.1566 73.5303 60.8467 72.612 60.8467 71.4316C60.8467 70.2103 61.1611 69.2624 61.79 68.5879C62.4189 67.9134 63.2347 67.5762 64.2373 67.5762C65.208 67.5762 66.001 67.9066 66.6162 68.5674C67.2314 69.2282 67.5391 70.1579 67.5391 71.3564C67.5391 71.4294 67.5368 71.5387 67.5322 71.6846H62.1182C62.1637 72.4821 62.3893 73.0928 62.7949 73.5166C63.2005 73.9404 63.7064 74.1523 64.3125 74.1523C64.7637 74.1523 65.1488 74.0339 65.4678 73.7969C65.7868 73.5599 66.0397 73.1816 66.2266 72.6621ZM62.1865 70.6729H66.2402C66.1855 70.0622 66.0306 69.6042 65.7754 69.2988C65.3835 68.8249 64.8753 68.5879 64.251 68.5879C63.6859 68.5879 63.2096 68.777 62.8223 69.1553C62.4395 69.5335 62.2275 70.0394 62.1865 70.6729ZM69.0566 67.7402H70.2871V70.7617H73.6982V67.7402H74.9287V75H73.6982V71.7803H70.2871V75H69.0566V67.7402ZM76.3301 71.3701C76.3301 70.0257 76.7038 69.0299 77.4512 68.3828C78.0755 67.8451 78.8366 67.5762 79.7344 67.5762C80.7324 67.5762 81.5482 67.9043 82.1816 68.5605C82.8151 69.2122 83.1318 70.1146 83.1318 71.2676C83.1318 72.2018 82.9906 72.9378 82.708 73.4756C82.43 74.0088 82.0221 74.4235 81.4844 74.7197C80.9512 75.016 80.3678 75.1641 79.7344 75.1641C78.7181 75.1641 77.8955 74.8382 77.2666 74.1865C76.6423 73.5348 76.3301 72.596 76.3301 71.3701ZM77.5947 71.3701C77.5947 72.2998 77.7975 72.9971 78.2031 73.4619C78.6087 73.9222 79.1191 74.1523 79.7344 74.1523C80.3451 74.1523 80.8532 73.9199 81.2588 73.4551C81.6644 72.9902 81.8672 72.2816 81.8672 71.3291C81.8672 70.4313 81.6621 69.7523 81.252 69.292C80.8464 68.8271 80.3405 68.5947 79.7344 68.5947C79.1191 68.5947 78.6087 68.8249 78.2031 69.2852C77.7975 69.7454 77.5947 70.4404 77.5947 71.3701ZM88.4844 67.7402H91.3213C92.0186 67.7402 92.5358 67.7995 92.873 67.918C93.2148 68.0319 93.5065 68.2438 93.748 68.5537C93.9941 68.8636 94.1172 69.235 94.1172 69.668C94.1172 70.0143 94.0443 70.3174 93.8984 70.5771C93.7572 70.8324 93.543 71.0465 93.2559 71.2197C93.5977 71.3337 93.8802 71.5479 94.1035 71.8623C94.3314 72.1722 94.4453 72.5413 94.4453 72.9697C94.3997 73.6579 94.1536 74.1683 93.707 74.501C93.2604 74.8337 92.611 75 91.7588 75H88.4844V67.7402ZM89.7148 70.7959H91.0273C91.5514 70.7959 91.9115 70.7686 92.1074 70.7139C92.3034 70.6592 92.4788 70.5498 92.6338 70.3857C92.7887 70.2171 92.8662 70.0166 92.8662 69.7842C92.8662 69.4014 92.7295 69.1348 92.4561 68.9844C92.1872 68.834 91.7246 68.7588 91.0684 68.7588H89.7148V70.7959ZM89.7148 73.9883H91.335C92.0322 73.9883 92.5107 73.9085 92.7705 73.749C93.0303 73.585 93.167 73.3047 93.1807 72.9082C93.1807 72.6758 93.1055 72.4616 92.9551 72.2656C92.8047 72.0651 92.6087 71.9398 92.3672 71.8896C92.1257 71.835 91.7383 71.8076 91.2051 71.8076H89.7148V73.9883ZM95.915 77.7822V67.7402H97.0361V68.6836C97.3005 68.3145 97.599 68.0387 97.9316 67.8564C98.2643 67.6696 98.6676 67.5762 99.1416 67.5762C99.7614 67.5762 100.308 67.7357 100.782 68.0547C101.256 68.3737 101.614 68.8249 101.855 69.4082C102.097 69.987 102.218 70.6227 102.218 71.3154C102.218 72.0583 102.083 72.7282 101.814 73.3252C101.55 73.9176 101.163 74.3734 100.652 74.6924C100.146 75.0068 99.6133 75.1641 99.0527 75.1641C98.6426 75.1641 98.2734 75.0775 97.9453 74.9043C97.6217 74.7311 97.3551 74.5124 97.1455 74.248V77.7822H95.915ZM97.0293 71.4111C97.0293 72.3454 97.2184 73.0358 97.5967 73.4824C97.9749 73.929 98.4329 74.1523 98.9707 74.1523C99.5176 74.1523 99.9847 73.9222 100.372 73.4619C100.764 72.9971 100.96 72.2793 100.96 71.3086C100.96 70.3835 100.769 69.6908 100.386 69.2305C100.007 68.7702 99.554 68.54 99.0254 68.54C98.5013 68.54 98.0365 68.7861 97.6309 69.2783C97.2298 69.766 97.0293 70.4769 97.0293 71.4111ZM108.678 72.6621L109.949 72.8193C109.749 73.5622 109.377 74.1387 108.835 74.5488C108.293 74.959 107.6 75.1641 106.757 75.1641C105.695 75.1641 104.852 74.8382 104.228 74.1865C103.608 73.5303 103.298 72.612 103.298 71.4316C103.298 70.2103 103.612 69.2624 104.241 68.5879C104.87 67.9134 105.686 67.5762 106.688 67.5762C107.659 67.5762 108.452 67.9066 109.067 68.5674C109.683 69.2282 109.99 70.1579 109.99 71.3564C109.99 71.4294 109.988 71.5387 109.983 71.6846H104.569C104.615 72.4821 104.84 73.0928 105.246 73.5166C105.652 73.9404 106.158 74.1523 106.764 74.1523C107.215 74.1523 107.6 74.0339 107.919 73.7969C108.238 73.5599 108.491 73.1816 108.678 72.6621ZM104.638 70.6729H108.691C108.637 70.0622 108.482 69.6042 108.227 69.2988C107.835 68.8249 107.326 68.5879 106.702 68.5879C106.137 68.5879 105.661 68.777 105.273 69.1553C104.891 69.5335 104.679 70.0394 104.638 70.6729ZM111.535 67.7402H113.449L115.356 73.5508L117.476 67.7402H119.246V75H118.016V69.1553L115.869 75H114.769L112.738 68.875V75H111.535V67.7402ZM126.096 72.6621L127.367 72.8193C127.167 73.5622 126.795 74.1387 126.253 74.5488C125.711 74.959 125.018 75.1641 124.175 75.1641C123.113 75.1641 122.27 74.8382 121.646 74.1865C121.026 73.5303 120.716 72.612 120.716 71.4316C120.716 70.2103 121.03 69.2624 121.659 68.5879C122.288 67.9134 123.104 67.5762 124.106 67.5762C125.077 67.5762 125.87 67.9066 126.485 68.5674C127.101 69.2282 127.408 70.1579 127.408 71.3564C127.408 71.4294 127.406 71.5387 127.401 71.6846H121.987C122.033 72.4821 122.258 73.0928 122.664 73.5166C123.07 73.9404 123.576 74.1523 124.182 74.1523C124.633 74.1523 125.018 74.0339 125.337 73.7969C125.656 73.5599 125.909 73.1816 126.096 72.6621ZM122.056 70.6729H126.109C126.055 70.0622 125.9 69.6042 125.645 69.2988C125.253 68.8249 124.744 68.5879 124.12 68.5879C123.555 68.5879 123.079 68.777 122.691 69.1553C122.309 69.5335 122.097 70.0394 122.056 70.6729ZM128.926 67.7402H130.156V70.7617H133.567V67.7402H134.798V75H133.567V71.7803H130.156V75H128.926V67.7402ZM136.657 67.7402H137.888V73.2773L141.299 67.7402H142.625V75H141.395V69.4971L137.983 75H136.657V67.7402Z" fill="#444444"/>
<path fill-rule="evenodd" clip-rule="evenodd" d="M3 1H159C160.105 1 161 1.89543 161 3V69C161 70.1046 160.105 71 159 71H152V72H159C160.657 72 162 70.6569 162 69V3C162 1.34315 160.657 0 159 0H3C1.34315 0 0 1.34315 0 3V69C0 70.6569 1.34314 72 3 72H10V71H3C1.89543 71 1 70.1046 1 69V3C1 1.89543 1.89543 1 3 1Z" fill="#CDCDCD"/>
<path d="M37.8946 47.27C42.2446 47.27 43.9246 43.76 43.9246 39.35C43.9246 35.12 42.6946 32.33 38.6746 32.33C36.9646 32.33 35.7646 33.02 35.1346 34.01V30.32C35.1346 26.75 36.1246 25.13 37.8946 25.13C40.0246 25.13 40.6246 26.42 40.6246 28.76H43.8646C43.8646 28.64 43.8346 28.49 43.8346 28.4C43.7446 24.62 41.6746 22.49 37.8946 22.49C33.3046 22.49 31.9246 26.39 31.9246 31.1V39.29C31.9246 43.73 33.6946 47.27 37.8946 47.27ZM37.8946 44.6C35.7946 44.6 35.1346 42.53 35.1346 40.04V36.41C35.6146 35.6 36.5446 34.76 37.8946 34.76C40.6246 34.76 40.6846 37.25 40.6846 40.13C40.6846 42.56 40.0246 44.6 37.8946 44.6ZM53.0425 47.27C57.1825 47.27 59.0425 44.3 59.0425 40.1V29.63C59.0425 25.37 57.2125 22.49 53.0425 22.49C48.8125 22.49 47.0125 25.37 47.0125 29.63V40.1C47.0125 44.27 48.9025 47.27 53.0425 47.27ZM53.0425 44.63C50.7925 44.63 50.2525 42.38 50.2525 40.13V29.6C50.2525 27.26 50.7025 25.1 53.0425 25.1C55.3525 25.1 55.8025 27.26 55.8025 29.6V40.13C55.8025 42.38 55.2925 44.63 53.0425 44.63ZM67.956 51.41H70.566L70.836 47H82.896L83.166 51.41H85.776V44.57H83.436V22.7H73.266L72.876 29.9C72.336 41.03 70.776 43.13 69.066 44.57H67.956V51.41ZM72.216 44.57C73.956 42.92 75.486 41.54 75.906 30.71L76.146 25.22H80.076V44.57H72.216ZM88.3246 47H91.7146V35.63H97.9546V47H101.345V22.7H97.9546V33.2H91.7146V22.7H88.3246V47ZM105.141 47H114.621V44.57H108.531V35.66H113.421V33.26H108.531V25.22H114.561V22.7H105.141V47ZM123.928 20.81C126.838 20.81 127.888 19.04 127.888 16.73H125.998C125.998 18.14 125.428 18.98 123.928 18.98C122.428 18.98 121.888 18.17 121.858 16.73H119.998C119.998 19.04 121.048 20.81 123.928 20.81ZM117.358 47H119.878L126.928 29.9V47H129.898V22.7H127.468L120.358 39.53V22.7H117.358V47Z" fill="black"/>
</svg>
